2000 0 1 0           
34 Abaqus, Inc. - Abaqus 6.14-4 - 230 12 ACIS 23.0 NT 24 Tue Jan 22 15:25:23 2019 
1 9.9999999999999995e-007 1e-010 
-0 body $1 -1 -1 $-1 $2 $-1 $3 T 20.5 -35.5 -35.500000000000007 158.19999999999999 35.5 35.500000000000007 #
-1 string_attrib-name_attrib-gen-attrib $-1 -1 $4 $-1 $0 2 1 1 1 1 1 1 1 1 1 1 1 1 1 0 1 1 1 @13 HKS_PART_NAME @11 model-ass-1 #
-2 lump $5 -1 -1 $-1 $-1 $6 $0 T 20.5 -35.5 -35.500000000000007 158.19999999999999 35.5 35.500000000000007 #
-3 transform $-1 -1 1 0 0 0 1 0 0 0 1 0 0 0 1 no_rotate no_reflect no_shear #
-4 string_attrib-name_attrib-gen-attrib $-1 -1 $7 $1 $0 2 1 1 1 1 1 1 1 1 1 1 1 1 1 0 1 1 1 @18 HKS_ATTRIB_BODY_ID @1 1 #
-5 cell_ptr-ct-attrib $-1 -1 $-1 $-1 $2 1 1 1 1 1 1 1 1 1 1 1 1 0 1 0 1 1 1 $8 $-1 auto #
-6 shell $-1 -1 -1 $-1 $-1 $-1 $9 $-1 $2 T 20.5 -35.5 -35.500000000000007 158.19999999999999 35.5 35.500000000000007 #
-7 string_attrib-name_attrib-gen-attrib $-1 -1 $-1 $4 $0 2 1 2 1 1 1 1 1 1 1 1 1 1 1 0 1 1 1 @15 ATTRIB_XACIS_ID @5 DE:23 #
-8 cell3d-cell $-1 -1 $10 $2 $-1 1 $11 #
-9 face $12 -1 -1 $-1 $13 $14 $6 $-1 $15 reversed single F F #
-10 cell3d-cell $-1 -1 $16 $2 $-1 1 $17 #
-11 cshell $-1 -1 $-1 $18 $8 #
-12 cface_ptr-ct-attrib $-1 -1 $-1 $-1 $9 1 1 1 1 1 1 1 1 1 1 1 1 0 1 0 1 1 1 $-1 $19 #
-13 face $20 -1 -1 $-1 $21 $22 $6 $-1 $15 reversed single F F #
-14 loop $-1 -1 -1 $-1 $-1 $23 $9 T 158.19999999999999 -1.6051912725778666e-015 0 158.19999999999999 35.499999999999986 35.500000000000007 periphery $15 T #
-15 plane-surface $-1 -1 -1 $-1 158.19999999999999 18.530000000000001 0 -1 0 0 -0 -1 -0 forward_v I I I I #
-16 cell3d-cell $-1 -1 $24 $2 $-1 1 $25 #
-17 cshell $-1 -1 $-1 $26 $10 #
-18 cface $-1 -1 $27 $11 $28 0 #
-19 cface $-1 -1 $29 $17 $9 0 #
-20 cface_ptr-ct-attrib $-1 -1 $-1 $-1 $13 1 1 1 1 1 1 1 1 1 1 1 1 0 1 0 1 1 1 $-1 $30 #
-21 face $31 -1 -1 $-1 $32 $33 $6 $-1 $34 forward single F F #
-22 loop $-1 -1 -1 $-1 $-1 $35 $13 T 158.19999999999999 -35.5 -5.8665556895783361e-015 158.19999999999999 9.7232646359376197e-015 35.500000000000007 periphery $15 T #
-23 coedge $-1 -1 -1 $-1 $36 $37 $38 $39 reversed $14 $-1 #
-24 cell3d-cell $-1 -1 $-1 $2 $-1 1 $40 #
-25 cshell $-1 -1 $-1 $41 $16 #
-26 cface $-1 -1 $42 $17 $43 1 #
-27 cface $-1 -1 $44 $11 $45 1 #
-28 face $46 -1 -1 $-1 $47 $48 $6 $-1 $49 forward single F F #
-29 cface $-1 -1 $-1 $17 $50 1 #
-30 cface $-1 -1 $51 $25 $13 0 #
-31 string_attrib-name_attrib-gen-attrib $-1 -1 $52 $-1 $21 2 1 2 1 1 1 1 1 1 1 1 1 1 1 0 1 1 1 @15 ATTRIB_XACIS_ID @5 DE:71 #
-32 face $53 -1 -1 $-1 $43 $54 $6 $-1 $49 forward single F F #
-33 loop $55 -1 -1 $-1 $-1 $56 $21 T 20.5 -35.5 -5.8665556895783361e-015 158.19999999999999 9.7232646359376197e-015 35.500000000000007 periphery $34 F #
-34 cone-surface $-1 -1 -1 $-1 149.86000000000001 1.0658141036401503e-014 -7.1054273576010019e-015 1 0 0 0 35.5 -2.8421709430404007e-014 1 I I 0 1 35.500000000000007 forward I I I I #
-35 coedge $-1 -1 -1 $-1 $57 $58 $56 $59 reversed $22 $-1 #
-36 coedge $-1 -1 -1 $-1 $60 $23 $58 $61 forward $14 $-1 #
-37 coedge $-1 -1 -1 $-1 $23 $60 $62 $63 forward $14 $-1 #
-38 coedge $-1 -1 -1 $-1 $64 $65 $23 $39 forward $54 $-1 #
-39 edge $-1 -1 -1 $-1 $66 1.5707963267948961 $67 3.1415926535897922 $38 $68 forward @7 unknown T 158.19999999999999 0 0 158.19999999999999 35.499999999999986 35.500000000000007 #
-40 cshell $-1 -1 $-1 $69 $24 #
-41 cface $-1 -1 $70 $25 $71 0 #
-42 cface $-1 -1 $72 $17 $73 0 #
-43 face $74 -1 -1 $-1 $75 $76 $6 $-1 $77 forward double in F F #
-44 cface $-1 -1 $78 $11 $47 0 #
-45 face $79 -1 -1 $-1 $80 $81 $6 $-1 $77 forward double in F F #
-46 string_attrib-name_attrib-gen-attrib $-1 -1 $82 $-1 $28 2 1 2 1 1 1 1 1 1 1 1 1 1 1 0 1 1 1 @15 ATTRIB_XACIS_ID @5 DE:47 #
-47 face $83 -1 -1 $-1 $-1 $84 $6 $-1 $85 forward single F F #
-48 loop $86 -1 -1 $-1 $-1 $87 $28 T 20.5 -8.6949922739462066e-015 -35.5 158.19999999999999 35.5 5.3748517137758471e-016 periphery $49 F #
-49 cone-surface $-1 -1 -1 $-1 149.86000000000001 -1.2434497875801753e-014 7.1054273576010019e-015 1 0 0 0 -35.5 3.3750779948604759e-014 1 I I 0 1 35.500000000000007 forward I I I I #
-50 face $88 -1 -1 $-1 $71 $89 $6 $-1 $90 forward double in F F #
-51 cface $-1 -1 $-1 $25 $21 0 #
-52 cface_ptr-ct-attrib $-1 -1 $-1 $31 $21 1 1 1 1 1 1 1 1 1 1 1 1 0 1 0 1 1 1 $-1 $51 #
-53 string_attrib-name_attrib-gen-attrib $-1 -1 $91 $-1 $32 2 1 2 1 1 1 1 1 1 1 1 1 1 1 0 1 1 1 @15 ATTRIB_XACIS_ID @5 DE:47 #
-54 loop $92 -1 -1 $-1 $-1 $38 $32 T 20.5 0 -2.1737480684865516e-015 158.19999999999999 35.5 35.500000000000007 periphery $49 F #
-55 integer_attrib-name_attrib-gen-attrib $-1 -1 $93 $-1 $33 2 1 2 1 1 1 1 1 1 1 1 1 1 1 0 1 1 1 @18 ATTRIB_XACIS_LAYER 0 #
-56 coedge $-1 -1 -1 $-1 $94 $95 $35 $59 forward $33 $-1 #
-57 coedge $-1 -1 -1 $-1 $96 $35 $97 $98 forward $22 $-1 #
-58 coedge $-1 -1 -1 $-1 $35 $96 $99 $61 reversed $22 $-1 #
-59 edge $-1 -1 -1 $-1 $100 -3.141592653589794 $66 -1.5707963267948974 $56 $101 forward @7 unknown T 158.19999999999999 -35.5 -5.8665556895783361e-015 158.19999999999999 9.7232646359376197e-015 35.500000000000007 #
-60 coedge $-1 -1 -1 $-1 $37 $36 $102 $103 reversed $14 $-1 #
-61 edge $-1 -1 -1 $-1 $66 -35.500000000000007 $104 -33.500000000000007 $99 $105 forward @7 unknown T 158.19999999999999 0 33.500000000000007 158.19999999999999 0 35.500000000000007 #
-62 coedge $-1 -1 -1 $-1 $106 $107 $108 $63 reversed $109 $-1 #
-63 edge $-1 -1 -1 $-1 $110 19.689999999999987 $67 21.689999999999987 $108 $111 forward @7 unknown T 158.19999999999999 33.499999999999986 0 158.19999999999999 35.499999999999986 2.2283029976492858e-015 #
-64 coedge $-1 -1 -1 $-1 $112 $38 $113 $114 forward $54 $-1 #
-65 coedge $-1 -1 -1 $-1 $38 $112 $115 $116 reversed $54 $-1 #
-66 vertex $-1 -1 -1 $-1 $116 $117 #
-67 vertex $-1 -1 -1 $-1 $114 $118 #
-68 ellipse-curve $-1 -1 -1 $-1 158.19999999999999 -1.2434497875801753e-014 7.1054273576010019e-015 -1 0 0 0 -35.5 3.3750779948604759e-014 1 I I #
-69 cface $-1 -1 $119 $40 $120 0 #
-70 cface $-1 -1 $121 $25 $122 1 #
-71 face $123 -1 -1 $-1 $124 $125 $6 $-1 $126 forward single F F #
-72 cface $-1 -1 $127 $17 $128 0 #
-73 face $129 -1 -1 $-1 $128 $130 $6 $-1 $131 forward single F F #
-74 cface_ptr-ct-attrib $-1 -1 $-1 $-1 $43 1 1 1 1 1 1 1 1 1 1 1 1 0 1 0 1 1 1 $26 $132 #
-75 face $133 -1 -1 $-1 $134 $109 $6 $-1 $135 reversed single F F #
-76 loop $-1 -1 -1 $-1 $-1 $99 $43 T 20.5 0 33.5 158.19999999999999 4.1025667771436322e-015 35.500000000000007 periphery $77 F #
-77 plane-surface $-1 -1 -1 $-1 0 0 0 0 1 0 0 0 1 forward_v I I I I #
-78 cface $-1 -1 $136 $11 $50 0 #
-79 cface_ptr-ct-attrib $-1 -1 $-1 $-1 $45 1 1 1 1 1 1 1 1 1 1 1 1 0 1 0 1 1 1 $27 $119 #
-80 face $137 -1 -1 $-1 $138 $139 $6 $-1 $85 forward single F F #
-81 loop $-1 -1 -1 $-1 $-1 $140 $45 T 20.5 -8.6949922739462066e-015 -35.5 158.19999999999999 0 -33.499999999999993 periphery $77 F #
-82 cface_ptr-ct-attrib $-1 -1 $-1 $46 $28 1 1 1 1 1 1 1 1 1 1 1 1 0 1 0 1 1 1 $-1 $18 #
-83 cface_ptr-ct-attrib $-1 -1 $141 $-1 $47 1 1 1 1 1 1 1 1 1 1 1 1 0 1 0 1 1 1 $-1 $44 #
-84 loop $142 -1 -1 $-1 $-1 $143 $47 T 20.5 -8.6949922739462066e-015 -35.5 20.5 35.5 0 periphery $85 F #
-85 plane-surface $-1 -1 -1 $-1 20.5 -35.500000000000007 -35.5 -1 0 0 0 0 1 forward_v I I I I #
-86 integer_attrib-name_attrib-gen-attrib $-1 -1 $144 $-1 $48 2 1 2 1 1 1 1 1 1 1 1 1 1 1 0 1 1 1 @18 ATTRIB_XACIS_LAYER 0 #
-87 coedge $-1 -1 -1 $-1 $145 $113 $107 $146 forward $48 $-1 #
-88 cface_ptr-ct-attrib $-1 -1 $-1 $-1 $50 1 1 1 1 1 1 1 1 1 1 1 1 0 1 0 1 1 1 $29 $78 #
-89 loop $-1 -1 -1 $-1 $-1 $108 $50 T 20.5 33.499999999999986 -3.1690113871582193e-015 158.19999999999999 35.5 2.2283029976492858e-015 periphery $90 F #
-90 plane-surface $-1 -1 -1 $-1 0 0 0 0 0 1 1 0 0 forward_v I I I I #
-91 cface_ptr-ct-attrib $-1 -1 $-1 $53 $32 1 1 1 1 1 1 1 1 1 1 1 1 0 1 0 1 1 1 $-1 $127 #
-92 integer_attrib-name_attrib-gen-attrib $-1 -1 $147 $-1 $54 2 1 2 1 1 1 1 1 1 1 1 1 1 1 0 1 1 1 @18 ATTRIB_XACIS_LAYER 0 #
-93 string_attrib-name_attrib-gen-attrib $-1 -1 $148 $55 $33 2 1 2 1 1 1 1 1 1 1 1 1 1 1 0 1 1 1 @15 ATTRIB_XACIS_ID @5 DE:69 #
-94 coedge $-1 -1 -1 $-1 $149 $56 $65 $116 forward $33 $-1 #
-95 coedge $-1 -1 -1 $-1 $56 $149 $150 $151 forward $33 $-1 #
-96 coedge $-1 -1 -1 $-1 $58 $57 $152 $153 reversed $22 $-1 #
-97 coedge $-1 -1 -1 $-1 $154 $155 $156 $98 reversed $157 $-1 #
-98 edge $-1 -1 -1 $-1 $100 -49.310000000000002 $158 -47.309999999999988 $156 $159 forward @7 unknown T 158.19999999999999 -35.5 -2.2283029976492866e-015 158.19999999999999 -33.499999999999986 0 #
-99 coedge $-1 -1 -1 $-1 $160 $115 $36 $61 forward $76 $-1 #
-100 vertex $-1 -1 -1 $-1 $59 $161 #
-101 ellipse-curve $-1 -1 -1 $-1 158.19999999999999 1.0658141036401503e-014 -7.1054273576010019e-015 -1 0 0 0 35.5 -2.8421709430404007e-014 1 I I #
-102 coedge $-1 -1 -1 $-1 $162 $163 $60 $103 forward $130 $-1 #
-103 edge $-1 -1 -1 $-1 $110 -3.141592653589794 $104 -1.5707963267948979 $102 $164 forward @7 unknown T 158.19999999999999 -1.6051912725778666e-015 2.2283029976492858e-015 158.19999999999999 33.499999999999993 33.500000000000014 #
-104 vertex $-1 -1 -1 $-1 $165 $166 #
-105 straight-curve $-1 -1 -1 $-1 158.19999999999999 0 0 0 0 -1 I I #
-106 coedge $-1 -1 -1 $-1 $167 $62 $168 $169 reversed $109 $-1 #
-107 coedge $-1 -1 -1 $-1 $62 $167 $87 $146 reversed $109 $-1 #
-108 coedge $-1 -1 -1 $-1 $170 $171 $37 $63 forward $89 $-1 #
-109 loop $-1 -1 -1 $-1 $-1 $107 $75 T 158.19999999999999 -7.8224402104787559e-015 -35.499999999999993 158.19999999999999 35.499999999999986 2.2283029976492858e-015 periphery $135 T #
-110 vertex $-1 -1 -1 $-1 $103 $172 #
-111 straight-curve $-1 -1 -1 $-1 158.19999999999999 13.809999999999999 0 0 1 0 I I #
-112 coedge $-1 -1 -1 $-1 $65 $64 $173 $174 forward $54 $-1 #
-113 coedge $-1 -1 -1 $-1 $87 $175 $170 $114 reversed $48 $-1 #
-114 edge $-1 -1 -1 $-1 $67 -56.849999999999994 $176 80.849999999999994 $64 $177 forward @7 unknown T 20.5 35.499999999999986 0 158.19999999999999 35.5 0 #
-115 coedge $-1 -1 -1 $-1 $99 $178 $94 $116 reversed $76 $-1 #
-116 edge $179 -1 -1 $-1 $66 0.14842300556586271 $180 1 $94 $181 forward @7 unknown T 20.5 0 35.5 158.19999999999999 0 35.500000000000007 #
-117 point $-1 -1 -1 $-1 158.19999999999999 0 35.500000000000007 #
-118 point $-1 -1 -1 $-1 158.19999999999999 35.499999999999986 0 #
-119 cface $-1 -1 $182 $40 $45 0 #
-120 face $183 -1 -1 $-1 $184 $185 $6 $-1 $126 forward single F F #
-121 cface $-1 -1 $132 $25 $138 0 #
-122 face $186 -1 -1 $-1 $120 $187 $6 $-1 $90 forward double in F F #
-123 string_attrib-name_attrib-gen-attrib $-1 -1 $188 $-1 $71 2 1 2 1 1 1 1 1 1 1 1 1 1 1 0 1 1 1 @15 ATTRIB_XACIS_ID @5 DE:23 #
-124 face $189 -1 -1 $-1 $73 $190 $6 $-1 $34 forward single F F #
-125 loop $191 -1 -1 $-1 $-1 $152 $71 T 20.5 -33.5 -2.2283029976492866e-015 158.19999999999999 6.9342617907786054e-015 33.500000000000007 periphery $126 F #
-126 cone-surface $-1 -1 -1 $-1 52.840000000000003 1.7763568394002505e-014 -1.4210854715202004e-014 1 8.2172899448864333e-017 -3.9196182896205573e-017 -5.0837852783406853e-015 33.500000000000014 -2.3092638912203256e-014 1 I I 0 -1 33.500000000000021 forward I I I I #
-127 cface $-1 -1 $19 $17 $32 0 #
-128 face $192 -1 -1 $-1 $28 $193 $6 $-1 $85 forward single F F #
-129 string_attrib-name_attrib-gen-attrib $-1 -1 $194 $-1 $73 2 1 2 1 1 1 1 1 1 1 1 1 1 1 0 1 1 1 @15 ATTRIB_XACIS_ID @5 DE:95 #
-130 loop $195 -1 -1 $-1 $-1 $102 $73 T 20.5 -1.6051912725778666e-015 -3.1690113871582193e-015 158.19999999999999 33.5 33.500000000000014 periphery $131 F #
-131 cone-surface $-1 -1 -1 $-1 52.840000000000003 -8.8817841970012523e-015 3.5527136788005009e-015 1 -8.2172899448864321e-017 3.919618289620556e-017 -5.083785278340679e-015 -33.500000000000007 -2.6645352591003757e-014 1 I I 0 -1 33.500000000000007 forward I I I I #
-132 cface $-1 -1 $30 $25 $43 0 #
-133 cface_ptr-ct-attrib $-1 -1 $-1 $-1 $75 1 1 1 1 1 1 1 1 1 1 1 1 0 1 0 1 1 1 $-1 $136 #
-134 face $196 -1 -1 $-1 $122 $157 $6 $-1 $135 reversed single F F #
-135 plane-surface $-1 -1 -1 $-1 158.19999999999999 27.619999999999997 0 -1 -0 -0 -0 1 -0 forward_v I I I I #
-136 cface $-1 -1 $197 $11 $75 0 #
-137 string_attrib-name_attrib-gen-attrib $-1 -1 $198 $-1 $80 2 1 2 1 1 1 1 1 1 1 1 1 1 1 0 1 1 1 @15 ATTRIB_XACIS_ID @6 DE:155 #
-138 face $199 -1 -1 $-1 $50 $200 $6 $-1 $85 forward single F F #
-139 loop $201 -1 -1 $-1 $-1 $202 $80 T 20.5 -35.5 -35.5 20.5 0 0 periphery $85 F #
-140 coedge $-1 -1 -1 $-1 $203 $204 $167 $205 forward $81 $-1 #
-141 string_attrib-name_attrib-gen-attrib $-1 -1 $-1 $83 $47 2 1 2 1 1 1 1 1 1 1 1 1 1 1 0 1 1 1 @15 ATTRIB_XACIS_ID @6 DE:155 #
-142 integer_attrib-name_attrib-gen-attrib $-1 -1 $206 $-1 $84 2 1 2 1 1 1 1 1 1 1 1 1 1 1 0 1 1 1 @23 ATTRIB_XACIS_LINEWEIGHT 0 #
-143 coedge $-1 -1 -1 $-1 $207 $208 $202 $209 forward $84 $-1 #
-144 string_attrib-name_attrib-gen-attrib $-1 -1 $210 $86 $48 2 1 2 1 1 1 1 1 1 1 1 1 1 1 0 1 1 1 @15 ATTRIB_XACIS_ID @5 DE:45 #
-145 coedge $-1 -1 -1 $-1 $175 $87 $203 $211 reversed $48 $-1 #
-146 edge $-1 -1 -1 $-1 $67 -3.141592653589794 $212 -1.5707963267948979 $87 $213 forward @7 unknown T 158.19999999999999 -1.0635250438613923e-015 -35.499999999999993 158.19999999999999 35.499999999999986 5.3748517137758471e-016 #
-147 string_attrib-name_attrib-gen-attrib $-1 -1 $214 $92 $54 2 1 2 1 1 1 1 1 1 1 1 1 1 1 0 1 1 1 @15 ATTRIB_XACIS_ID @5 DE:45 #
-148 integer_attrib-name_attrib-gen-attrib $-1 -1 $-1 $93 $33 2 1 2 1 1 1 1 1 1 1 1 1 1 1 0 1 1 1 @23 ATTRIB_XACIS_LINEWEIGHT 0 #
-149 coedge $-1 -1 -1 $-1 $95 $94 $215 $216 forward $33 $-1 #
-150 coedge $-1 -1 -1 $-1 $217 $218 $219 $151 reversed $190 $-1 #
-151 edge $-1 -1 -1 $-1 $220 -80.849999999999994 $100 56.849999999999994 $95 $221 forward @7 unknown T 20.5 -35.5 0 158.19999999999999 -35.499999999999986 0 #
-152 coedge $-1 -1 -1 $-1 $222 $223 $96 $153 forward $125 $-1 #
-153 edge $-1 -1 -1 $-1 $104 1.5707963267948979 $158 3.1415926535897931 $152 $224 forward @7 unknown T 158.19999999999999 -33.499999999999986 -2.2283029976492866e-015 158.19999999999999 6.9342617907786054e-015 33.500000000000007 #
-154 coedge $-1 -1 -1 $-1 $225 $97 $218 $226 reversed $157 $-1 #
-155 coedge $-1 -1 -1 $-1 $97 $225 $227 $228 reversed $157 $-1 #
-156 coedge $-1 -1 -1 $-1 $229 $219 $57 $98 forward $187 $-1 #
-157 loop $-1 -1 -1 $-1 $-1 $154 $134 T 158.19999999999999 -35.5 -35.500000000000007 158.19999999999999 5.3799495563034115e-015 6.4950758991339985e-016 periphery $135 T #
-158 vertex $-1 -1 -1 $-1 $230 $231 #
-159 straight-curve $-1 -1 -1 $-1 158.19999999999999 13.809999999999999 0 0 1 0 I I #
-160 coedge $-1 -1 -1 $-1 $178 $99 $162 $165 forward $76 $-1 #
-161 point $-1 -1 -1 $-1 158.19999999999999 -35.5 0 #
-162 coedge $-1 -1 -1 $-1 $232 $102 $223 $165 forward $130 $-1 #
-163 coedge $-1 -1 -1 $-1 $102 $232 $233 $234 forward $130 $-1 #
-164 ellipse-curve $-1 -1 -1 $-1 158.19999999999999 -1.7539520882933595e-014 7.682423508744718e-015 1 -0 -0 -5.083785278340679e-015 -33.500000000000007 -2.6645352591003757e-014 1 I I #
-165 edge $235 -1 -1 $-1 $104 0.14842300556586271 $236 1 $162 $237 forward @7 unknown T 20.5 0 33.5 158.19999999999999 4.1025667771436322e-015 33.500000000000007 #
-166 point $-1 -1 -1 $-1 158.19999999999999 0 33.500000000000007 #
-167 coedge $-1 -1 -1 $-1 $107 $106 $225 $205 forward $109 $-1 #
-168 coedge $-1 -1 -1 $-1 $233 $238 $106 $169 forward $239 $-1 #
-169 edge $-1 -1 -1 $-1 $240 1.5707963267948961 $110 3.1415926535897922 $168 $241 forward @7 unknown T 158.19999999999999 -7.8224402104787559e-015 -33.5 158.19999999999999 33.499999999999993 2.2283029976492858e-015 #
-170 coedge $-1 -1 -1 $-1 $242 $108 $64 $114 forward $89 $-1 #
-171 coedge $-1 -1 -1 $-1 $108 $242 $163 $234 forward $89 $-1 #
-172 point $-1 -1 -1 $-1 158.19999999999999 33.499999999999986 2.2283029976492858e-015 #
-173 coedge $-1 -1 -1 $-1 $243 $244 $112 $174 reversed $193 $245 #
-174 edge $246 -1 -1 $-1 $176 1.5707963267948966 $180 3.1415926535897931 $112 $247 forward @7 unknown T 20.5 0 -2.1737480684865516e-015 20.5 35.5 35.5 #
-175 coedge $-1 -1 -1 $-1 $113 $145 $208 $248 forward $48 $-1 #
-176 vertex $-1 -1 -1 $-1 $174 $249 #
-177 straight-curve $-1 -1 -1 $-1 101.34999999999999 35.499999999999986 0 -1 -0 -0 I I #
-178 coedge $-1 -1 -1 $-1 $115 $160 $244 $250 forward $76 $-1 #
-179 string_attrib-name_attrib-gen-attrib $-1 -1 $-1 $-1 $116 2 1 2 1 1 1 1 1 1 1 1 1 1 1 0 1 1 1 @15 ATTRIB_XACIS_ID @5 DE:61 #
-180 vertex $-1 -1 -1 $-1 $116 $251 #
-181 straight-curve $-1 -1 -1 $-1 182.19999999999999 0 35.500000000000007 -161.69999999999999 0 -7.1054273576010019e-015 F -0 F 1 #
-182 cface $-1 -1 $252 $40 $80 0 #
-183 string_attrib-name_attrib-gen-attrib $-1 -1 $253 $-1 $120 2 1 2 1 1 1 1 1 1 1 1 1 1 1 0 1 1 1 @15 ATTRIB_XACIS_ID @5 DE:23 #
-184 face $254 -1 -1 $-1 $45 $239 $6 $-1 $131 forward single F F #
-185 loop $255 -1 -1 $-1 $-1 $227 $120 T 20.5 -33.5 -33.500000000000036 158.19999999999999 5.3799495563034115e-015 3.1690113871582204e-015 periphery $126 F #
-186 cface_ptr-ct-attrib $-1 -1 $-1 $-1 $122 1 1 1 1 1 1 1 1 1 1 1 1 0 1 0 1 1 1 $70 $252 #
-187 loop $-1 -1 -1 $-1 $-1 $156 $122 T 20.5 -35.5 -2.2283029976492866e-015 158.19999999999999 -33.499999999999986 3.1690113871582204e-015 periphery $90 F #
-188 cface_ptr-ct-attrib $-1 -1 $-1 $123 $71 1 1 1 1 1 1 1 1 1 1 1 1 0 1 0 1 1 1 $-1 $41 #
-189 string_attrib-name_attrib-gen-attrib $-1 -1 $256 $-1 $124 2 1 2 1 1 1 1 1 1 1 1 1 1 1 0 1 1 1 @15 ATTRIB_XACIS_ID @5 DE:71 #
-190 loop $257 -1 -1 $-1 $-1 $218 $124 T 20.5 -35.5 -35.500000000000007 158.19999999999999 1.7534662416126711e-016 0 periphery $34 F #
-191 integer_attrib-name_attrib-gen-attrib $-1 -1 $258 $-1 $125 2 1 2 1 1 1 1 1 1 1 1 1 1 1 0 1 1 1 @18 ATTRIB_XACIS_LAYER 0 #
-192 string_attrib-name_attrib-gen-attrib $-1 -1 $259 $-1 $128 2 1 2 1 1 1 1 1 1 1 1 1 1 1 0 1 1 1 @15 ATTRIB_XACIS_ID @6 DE:155 #
-193 loop $260 -1 -1 $-1 $-1 $244 $128 T 20.5 0 -2.1737480684865516e-015 20.5 35.5 35.5 periphery $85 F #
-194 cface_ptr-ct-attrib $-1 -1 $-1 $129 $73 1 1 1 1 1 1 1 1 1 1 1 1 0 1 0 1 1 1 $-1 $42 #
-195 integer_attrib-name_attrib-gen-attrib $-1 -1 $261 $-1 $130 2 1 2 1 1 1 1 1 1 1 1 1 1 1 0 1 1 1 @18 ATTRIB_XACIS_LAYER 0 #
-196 cface_ptr-ct-attrib $-1 -1 $-1 $-1 $134 1 1 1 1 1 1 1 1 1 1 1 1 0 1 0 1 1 1 $-1 $262 #
-197 cface $-1 -1 $-1 $11 $184 0 #
-198 cface_ptr-ct-attrib $-1 -1 $-1 $137 $80 1 1 1 1 1 1 1 1 1 1 1 1 0 1 0 1 1 1 $-1 $182 #
-199 cface_ptr-ct-attrib $-1 -1 $263 $-1 $138 1 1 1 1 1 1 1 1 1 1 1 1 0 1 0 1 1 1 $-1 $121 #
-200 loop $264 -1 -1 $-1 $-1 $265 $138 T 20.5 -35.5 -2.1737480684865516e-015 20.5 4.1025667771436322e-015 35.5 periphery $85 F #
-201 integer_attrib-name_attrib-gen-attrib $-1 -1 $266 $-1 $139 2 1 2 1 1 1 1 1 1 1 1 1 1 1 0 1 1 1 @18 ATTRIB_XACIS_LAYER 0 #
-202 coedge $-1 -1 -1 $-1 $267 $268 $269 $209 reversed $139 $-1 #
-203 coedge $-1 -1 -1 $-1 $269 $140 $270 $211 reversed $81 $-1 #
-204 coedge $-1 -1 -1 $-1 $140 $269 $238 $271 forward $81 $-1 #
-205 edge $-1 -1 -1 $-1 $240 33.499999999999993 $212 35.499999999999993 $140 $272 forward @7 unknown T 158.19999999999999 0 -35.499999999999993 158.19999999999999 0 -33.499999999999993 #
-206 string_attrib-name_attrib-gen-attrib $-1 -1 $273 $142 $84 2 1 2 1 1 1 1 1 1 1 1 1 1 1 0 1 1 1 @15 ATTRIB_XACIS_ID @6 DE:141 #
-207 coedge $-1 -1 -1 $-1 $274 $143 $275 $276 forward $84 $277 #
-208 coedge $-1 -1 -1 $-1 $143 $274 $175 $248 reversed $84 $278 #
-209 edge $-1 -1 -1 $-1 $279 -17.75 $280 -15.75 $143 $281 forward @7 unknown T 20.5 -8.6949922739462066e-015 -35.5 20.5 0 -33.5 #
-210 integer_attrib-name_attrib-gen-attrib $-1 -1 $-1 $144 $48 2 1 2 1 1 1 1 1 1 1 1 1 1 1 0 1 1 1 @23 ATTRIB_XACIS_LINEWEIGHT 0 #
-211 edge $282 -1 -1 $-1 $279 0 $212 0.85157699443413726 $270 $283 forward @7 unknown T 20.5 -8.6949922739462066e-015 -35.5 158.19999999999999 0 -35.499999999999993 #
-212 vertex $-1 -1 -1 $-1 $146 $284 #
-213 ellipse-curve $-1 -1 -1 $-1 158.19999999999999 -1.2434497875801753e-014 7.1054273576010019e-015 -1 -0 -0 0 -35.5 3.3750779948604759e-014 1 I I #
-214 integer_attrib-name_attrib-gen-attrib $-1 -1 $-1 $147 $54 2 1 2 1 1 1 1 1 1 1 1 1 1 1 0 1 1 1 @23 ATTRIB_XACIS_LINEWEIGHT 0 #
-215 coedge $-1 -1 -1 $-1 $265 $285 $149 $216 reversed $200 $286 #
-216 edge $287 -1 -1 $-1 $180 -3.1415926535897931 $220 -1.5707963267948966 $149 $288 forward @7 unknown T 20.5 -35.5 -2.1737480684865516e-015 20.5 0 35.5 #
-217 coedge $-1 -1 -1 $-1 $270 $150 $267 $289 forward $190 $-1 #
-218 coedge $-1 -1 -1 $-1 $150 $270 $154 $226 forward $190 $-1 #
-219 coedge $-1 -1 -1 $-1 $156 $290 $95 $151 forward $187 $-1 #
-220 vertex $-1 -1 -1 $-1 $289 $291 #
-221 straight-curve $-1 -1 -1 $-1 101.34999999999999 -35.499999999999986 0 1 0 0 I I #
-222 coedge $-1 -1 -1 $-1 $292 $152 $293 $230 forward $125 $-1 #
-223 coedge $-1 -1 -1 $-1 $152 $292 $160 $165 reversed $125 $-1 #
-224 ellipse-curve $-1 -1 -1 $-1 158.19999999999999 2.6421305079934847e-014 -1.8340564545146222e-014 1 -0 -0 -5.0837852783406853e-015 33.500000000000014 -2.3092638912203256e-014 1 I I #
-225 coedge $-1 -1 -1 $-1 $155 $154 $140 $205 reversed $157 $-1 #
-226 edge $-1 -1 -1 $-1 $212 1.5707963267948961 $100 3.1415926535897922 $218 $294 forward @7 unknown T 158.19999999999999 -35.5 -35.500000000000007 158.19999999999999 1.7534662416126711e-016 0 #
-227 coedge $-1 -1 -1 $-1 $295 $293 $155 $228 forward $185 $-1 #
-228 edge $-1 -1 -1 $-1 $158 -3.1415926535897931 $240 -1.5707963267948966 $227 $296 forward @7 unknown T 158.19999999999999 -33.499999999999986 -33.500000000000036 158.19999999999999 5.3799495563034115e-015 6.4950758991339985e-016 #
-229 coedge $-1 -1 -1 $-1 $290 $156 $222 $230 forward $187 $-1 #
-230 edge $-1 -1 -1 $-1 $158 -56.849999999999994 $297 80.849999999999994 $222 $298 forward @7 unknown T 20.5 -33.5 -2.2283029976492866e-015 158.19999999999999 -33.499999999999986 3.1690113871582204e-015 #
-231 point $-1 -1 -1 $-1 158.19999999999999 -33.499999999999986 -2.2283029976492866e-015 #
-232 coedge $-1 -1 -1 $-1 $163 $162 $299 $300 reversed $130 $-1 #
-233 coedge $-1 -1 -1 $-1 $275 $168 $171 $234 reversed $239 $-1 #
-234 edge $-1 -1 -1 $-1 $301 -80.849999999999994 $110 56.849999999999994 $163 $302 forward @7 unknown T 20.5 33.499999999999986 -3.1690113871582193e-015 158.19999999999999 33.5 2.2283029976492858e-015 #
-235 string_attrib-name_attrib-gen-attrib $-1 -1 $-1 $-1 $165 2 1 2 1 1 1 1 1 1 1 1 1 1 1 0 1 1 1 @15 ATTRIB_XACIS_ID @5 DE:85 #
-236 vertex $-1 -1 -1 $-1 $300 $303 #
-237 straight-curve $-1 -1 -1 $-1 182.19999999999999 0 33.500000000000007 -161.69999999999999 0 -7.1054273576010019e-015 F 0 F 1 #
-238 coedge $-1 -1 -1 $-1 $168 $275 $295 $271 forward $239 $-1 #
-239 loop $304 -1 -1 $-1 $-1 $168 $184 T 20.5 -8.2051335542872644e-015 -33.5 158.19999999999999 33.5 2.2283029976492858e-015 periphery $131 F #
-240 vertex $-1 -1 -1 $-1 $169 $305 #
-241 ellipse-curve $-1 -1 -1 $-1 158.19999999999999 -1.7539520882933595e-014 7.682423508744718e-015 1 0 0 -5.083785278340679e-015 -33.500000000000007 -2.6645352591003757e-014 1 I I #
-242 coedge $-1 -1 -1 $-1 $171 $170 $243 $306 forward $89 $-1 #
-243 coedge $-1 -1 -1 $-1 $299 $173 $274 $306 forward $193 $-1 #
-244 coedge $-1 -1 -1 $-1 $173 $299 $265 $250 forward $193 $-1 #
-245 pcurve $-1 -1 -1 $-1 0 forward { exppc nurbs 2 open 3 
	-3.1415926535897931 2 -1.5707963267948968 2 -1.4791141972893971e-031 2 
	71 35.500000000000014 1 
	71 71 0.70710678118654724 
	35.500000000000007 71 1 
	7.1054273576010019e-015 71.000000000000014 0.70710678118654724 
	0 35.500000000000014 1 
	0.001 
	-1 
	plane 20.5 -35.500000000000007 -35.5 -1 0 0 0 0 1 forward_v I I I I 
	} 0 0 #
-246 string_attrib-name_attrib-gen-attrib $-1 -1 $-1 $-1 $174 2 1 2 1 1 1 1 1 1 1 1 1 1 1 0 1 1 1 @15 ATTRIB_XACIS_ID @5 DE:35 #
-247 ellipse-curve $-1 -1 -1 $-1 20.5 0 0 1 -0 0 0 0 -35.5 1 F 0 F 3.1415926535897931 #
-248 edge $307 -1 -1 $-1 $279 0 $176 1.5707963267948966 $175 $247 forward @7 unknown T 20.5 -8.6949922739462066e-015 -35.5 20.5 35.5 0 #
-249 point $-1 -1 -1 $-1 20.5 35.5 0 #
-250 edge $-1 -1 -1 $-1 $236 51.25 $180 53.25 $244 $308 forward @7 unknown T 20.5 0 33.5 20.5 4.1025667771436322e-015 35.5 #
-251 point $-1 -1 -1 $-1 20.5 0 35.5 #
-252 cface $-1 -1 $262 $40 $122 0 #
-253 cface_ptr-ct-attrib $-1 -1 $-1 $183 $120 1 1 1 1 1 1 1 1 1 1 1 1 0 1 0 1 1 1 $-1 $69 #
-254 string_attrib-name_attrib-gen-attrib $-1 -1 $309 $-1 $184 2 1 2 1 1 1 1 1 1 1 1 1 1 1 0 1 1 1 @15 ATTRIB_XACIS_ID @5 DE:95 #
-255 integer_attrib-name_attrib-gen-attrib $-1 -1 $310 $-1 $185 2 1 2 1 1 1 1 1 1 1 1 1 1 1 0 1 1 1 @18 ATTRIB_XACIS_LAYER 0 #
-256 cface_ptr-ct-attrib $-1 -1 $-1 $189 $124 1 1 1 1 1 1 1 1 1 1 1 1 0 1 0 1 1 1 $-1 $311 #
-257 integer_attrib-name_attrib-gen-attrib $-1 -1 $312 $-1 $190 2 1 2 1 1 1 1 1 1 1 1 1 1 1 0 1 1 1 @18 ATTRIB_XACIS_LAYER 0 #
-258 string_attrib-name_attrib-gen-attrib $-1 -1 $313 $191 $125 2 1 2 1 1 1 1 1 1 1 1 1 1 1 0 1 1 1 @15 ATTRIB_XACIS_ID @5 DE:21 #
-259 cface_ptr-ct-attrib $-1 -1 $-1 $192 $128 1 1 1 1 1 1 1 1 1 1 1 1 0 1 0 1 1 1 $-1 $72 #
-260 integer_attrib-name_attrib-gen-attrib $-1 -1 $314 $-1 $193 2 1 2 1 1 1 1 1 1 1 1 1 1 1 0 1 1 1 @18 ATTRIB_XACIS_LAYER 0 #
-261 string_attrib-name_attrib-gen-attrib $-1 -1 $315 $195 $130 2 1 2 1 1 1 1 1 1 1 1 1 1 1 0 1 1 1 @15 ATTRIB_XACIS_ID @5 DE:93 #
-262 cface $-1 -1 $311 $40 $134 0 #
-263 string_attrib-name_attrib-gen-attrib $-1 -1 $-1 $199 $138 2 1 2 1 1 1 1 1 1 1 1 1 1 1 0 1 1 1 @15 ATTRIB_XACIS_ID @6 DE:155 #
-264 integer_attrib-name_attrib-gen-attrib $-1 -1 $316 $-1 $200 2 1 2 1 1 1 1 1 1 1 1 1 1 1 0 1 1 1 @23 ATTRIB_XACIS_LINEWEIGHT 0 #
-265 coedge $-1 -1 -1 $-1 $317 $215 $178 $250 reversed $200 $-1 #
-266 string_attrib-name_attrib-gen-attrib $-1 -1 $318 $201 $139 2 1 2 1 1 1 1 1 1 1 1 1 1 1 0 1 1 1 @15 ATTRIB_XACIS_ID @6 DE:141 #
-267 coedge $-1 -1 -1 $-1 $319 $202 $217 $289 reversed $139 $320 #
-268 coedge $-1 -1 -1 $-1 $202 $319 $321 $322 forward $139 $323 #
-269 coedge $-1 -1 -1 $-1 $204 $203 $143 $209 forward $81 $-1 #
-270 coedge $-1 -1 -1 $-1 $218 $217 $145 $211 forward $190 $-1 #
-271 edge $324 -1 -1 $-1 $280 0 $240 0.85157699443413726 $238 $325 forward @7 unknown T 20.5 -8.2051335542872644e-015 -33.5 158.19999999999999 0 -33.499999999999993 #
-272 straight-curve $-1 -1 -1 $-1 158.19999999999999 0 0 0 0 -1 I I #
-273 integer_attrib-name_attrib-gen-attrib $-1 -1 $-1 $206 $84 2 1 2 1 1 1 1 1 1 1 1 1 1 1 0 1 1 1 @18 ATTRIB_XACIS_LAYER 0 #
-274 coedge $-1 -1 -1 $-1 $208 $207 $242 $306 reversed $84 $-1 #
-275 coedge $-1 -1 -1 $-1 $238 $233 $207 $276 reversed $239 $-1 #
-276 edge $326 -1 -1 $-1 $280 -2.4492935982947059e-016 $301 1.5707963267948966 $207 $327 forward @7 unknown T 20.5 -8.2051335542872644e-015 -33.5 20.5 33.5 0 #
-277 pcurve $-1 -1 -1 $-1 0 forward { exppc nurbs 2 open 3 
	-2.4492935982947059e-016 2 1.5707963267948961 2 3.1415926535897931 2 
	2 35.5 1 
	1.9999999999999929 69 0.70710678118654702 
	35.499999999999993 69 1 
	69 69.000000000000014 0.70710678118654757 
	69 35.500000000000014 1 
	0.001 
	-1 
	plane 20.5 -35.500000000000007 -35.5 -1 0 0 0 0 1 forward_v I I I I 
	} 0 0 #
-278 pcurve $-1 -1 -1 $-1 0 forward { ref 0 } 0 0 #
-279 vertex $-1 -1 -1 $-1 $289 $328 #
-280 vertex $-1 -1 -1 $-1 $322 $329 #
-281 straight-curve $-1 -1 -1 $-1 20.5 0 -17.75 0 -0 1 I I #
-282 string_attrib-name_attrib-gen-attrib $-1 -1 $-1 $-1 $211 2 1 2 1 1 1 1 1 1 1 1 1 1 1 0 1 1 1 @15 ATTRIB_XACIS_ID @5 DE:55 #
-283 straight-curve $-1 -1 -1 $-1 20.5 0 -35.5 161.69999999999999 0 7.1054273576010019e-015 F 0 F 1 #
-284 point $-1 -1 -1 $-1 158.19999999999999 0 -35.499999999999993 #
-285 coedge $-1 -1 -1 $-1 $215 $317 $319 $330 forward $200 $-1 #
-286 pcurve $-1 -1 -1 $-1 0 forward { exppc nurbs 2 open 3 
	2.4492935982947059e-016 2 1.5707963267948963 2 3.1415926535897927 2 
	0 35.500000000000014 1 
	-7.1054273576010019e-015 1.4210854715202004e-014 0.70710678118654724 
	35.499999999999993 7.1054273576010019e-015 1 
	71 0 0.70710678118654702 
	71 35.5 1 
	0.001 
	-1 
	plane 20.5 -35.500000000000007 -35.5 -1 0 0 0 0 1 forward_v I I I I 
	} 0 0 #
-287 string_attrib-name_attrib-gen-attrib $-1 -1 $-1 $-1 $216 2 1 2 1 1 1 1 1 1 1 1 1 1 1 0 1 1 1 @15 ATTRIB_XACIS_ID @5 DE:65 #
-288 ellipse-curve $-1 -1 -1 $-1 20.5 0 0 1 -0 0 0 0 -35.5 1 F -3.1415926535897931 F -2.4492935982947059e-016 #
-289 edge $331 -1 -1 $-1 $220 -1.5707963267948966 $279 -2.4492935982947059e-016 $217 $288 forward @7 unknown T 20.5 -35.5 -35.5 20.5 -8.6949922739462066e-015 0 #
-290 coedge $-1 -1 -1 $-1 $219 $229 $285 $330 forward $187 $-1 #
-291 point $-1 -1 -1 $-1 20.5 -35.5 0 #
-292 coedge $-1 -1 -1 $-1 $223 $222 $317 $332 reversed $125 $-1 #
-293 coedge $-1 -1 -1 $-1 $227 $321 $229 $230 reversed $185 $-1 #
-294 ellipse-curve $-1 -1 -1 $-1 158.19999999999999 1.0658141036401503e-014 -7.1054273576010019e-015 -1 -0 -0 0 35.5 -2.8421709430404007e-014 1 I I #
-295 coedge $-1 -1 -1 $-1 $321 $227 $204 $271 reversed $185 $-1 #
-296 ellipse-curve $-1 -1 -1 $-1 158.19999999999999 2.6421305079934847e-014 -1.8340564545146222e-014 1 0 0 -5.0837852783406853e-015 33.500000000000014 -2.3092638912203256e-014 1 I I #
-297 vertex $-1 -1 -1 $-1 $322 $333 #
-298 straight-curve $-1 -1 -1 $-1 101.34999999999999 -33.499999999999993 0 -1 -8.2172899448864333e-017 3.9196182896205573e-017 I I #
-299 coedge $-1 -1 -1 $-1 $244 $243 $232 $300 forward $193 $334 #
-300 edge $335 -1 -1 $-1 $301 1.5707963267948966 $236 3.1415926535897931 $299 $327 forward @7 unknown T 20.5 4.1025667771436322e-015 -2.0512833885718161e-015 20.5 33.5 33.5 #
-301 vertex $-1 -1 -1 $-1 $300 $336 #
-302 straight-curve $-1 -1 -1 $-1 101.34999999999999 33.499999999999993 0 1 -8.2172899448864321e-017 3.919618289620556e-017 I I #
-303 point $-1 -1 -1 $-1 20.5 4.1025667771436322e-015 33.5 #
-304 integer_attrib-name_attrib-gen-attrib $-1 -1 $337 $-1 $239 2 1 2 1 1 1 1 1 1 1 1 1 1 1 0 1 1 1 @18 ATTRIB_XACIS_LAYER 0 #
-305 point $-1 -1 -1 $-1 158.19999999999999 0 -33.499999999999993 #
-306 edge $-1 -1 -1 $-1 $176 -53.25 $301 -51.25 $243 $338 forward @7 unknown T 20.5 33.5 0 20.5 35.5 0 #
-307 string_attrib-name_attrib-gen-attrib $-1 -1 $-1 $-1 $248 2 1 2 1 1 1 1 1 1 1 1 1 1 1 0 1 1 1 @15 ATTRIB_XACIS_ID @5 DE:35 #
-308 straight-curve $-1 -1 -1 $-1 20.5 0 -17.75 0 -0 1 I I #
-309 cface_ptr-ct-attrib $-1 -1 $-1 $254 $184 1 1 1 1 1 1 1 1 1 1 1 1 0 1 0 1 1 1 $-1 $197 #
-310 string_attrib-name_attrib-gen-attrib $-1 -1 $339 $255 $185 2 1 2 1 1 1 1 1 1 1 1 1 1 1 0 1 1 1 @15 ATTRIB_XACIS_ID @5 DE:21 #
-311 cface $-1 -1 $-1 $40 $124 0 #
-312 string_attrib-name_attrib-gen-attrib $-1 -1 $340 $257 $190 2 1 2 1 1 1 1 1 1 1 1 1 1 1 0 1 1 1 @15 ATTRIB_XACIS_ID @5 DE:69 #
-313 integer_attrib-name_attrib-gen-attrib $-1 -1 $-1 $258 $125 2 1 2 1 1 1 1 1 1 1 1 1 1 1 0 1 1 1 @23 ATTRIB_XACIS_LINEWEIGHT 0 #
-314 string_attrib-name_attrib-gen-attrib $-1 -1 $341 $260 $193 2 1 2 1 1 1 1 1 1 1 1 1 1 1 0 1 1 1 @15 ATTRIB_XACIS_ID @6 DE:141 #
-315 integer_attrib-name_attrib-gen-attrib $-1 -1 $-1 $261 $130 2 1 2 1 1 1 1 1 1 1 1 1 1 1 0 1 1 1 @23 ATTRIB_XACIS_LINEWEIGHT 0 #
-316 string_attrib-name_attrib-gen-attrib $-1 -1 $342 $264 $200 2 1 2 1 1 1 1 1 1 1 1 1 1 1 0 1 1 1 @15 ATTRIB_XACIS_ID @6 DE:141 #
-317 coedge $-1 -1 -1 $-1 $285 $265 $292 $332 forward $200 $343 #
-318 integer_attrib-name_attrib-gen-attrib $-1 -1 $-1 $266 $139 2 1 2 1 1 1 1 1 1 1 1 1 1 1 0 1 1 1 @23 ATTRIB_XACIS_LINEWEIGHT 0 #
-319 coedge $-1 -1 -1 $-1 $268 $267 $290 $330 reversed $139 $-1 #
-320 pcurve $-1 -1 -1 $-1 0 forward { ref 2 } 0 0 #
-321 coedge $-1 -1 -1 $-1 $293 $295 $268 $322 reversed $185 $-1 #
-322 edge $344 -1 -1 $-1 $297 -1.5707963267948966 $280 -2.4492935982947059e-016 $268 $345 forward @7 unknown T 20.5 -33.5 -33.5 20.5 -8.2051335542872644e-015 0 #
-323 pcurve $-1 -1 -1 $-1 0 forward { exppc nurbs 2 open 3 
	-3.1415926535897931 2 -1.5707963267948968 2 -4.4408920985006262e-016 2 
	69 35.5 1 
	69 2.0000000000000142 0.70710678118654768 
	35.500000000000007 2.0000000000000071 1 
	2.0000000000000071 2 0.70710678118654724 
	2 35.5 1 
	0.001 
	-1 
	plane 20.5 -35.500000000000007 -35.5 -1 0 0 0 0 1 forward_v I I I I 
	} 0 0 #
-324 string_attrib-name_attrib-gen-attrib $-1 -1 $-1 $-1 $271 2 1 2 1 1 1 1 1 1 1 1 1 1 1 0 1 1 1 @15 ATTRIB_XACIS_ID @5 DE:79 #
-325 straight-curve $-1 -1 -1 $-1 20.5 0 -33.5 161.69999999999999 0 7.1054273576010019e-015 F 0 F 1 #
-326 string_attrib-name_attrib-gen-attrib $-1 -1 $-1 $-1 $276 2 1 2 1 1 1 1 1 1 1 1 1 1 1 0 1 1 1 @15 ATTRIB_XACIS_ID @6 DE:145 #
-327 ellipse-curve $-1 -1 -1 $-1 20.5 0 0 1 -0 0 0 0 -33.5 1 F -2.4492935982947059e-016 F 3.1415926535897931 #
-328 point $-1 -1 -1 $-1 20.5 -8.6949922739462066e-015 -35.5 #
-329 point $-1 -1 -1 $-1 20.5 -8.2051335542872644e-015 -33.5 #
-330 edge $-1 -1 -1 $-1 $297 15.749999999999996 $220 17.749999999999996 $285 $346 forward @7 unknown T 20.5 -35.5 0 20.5 -33.5 0 #
-331 string_attrib-name_attrib-gen-attrib $-1 -1 $-1 $-1 $289 2 1 2 1 1 1 1 1 1 1 1 1 1 1 0 1 1 1 @15 ATTRIB_XACIS_ID @5 DE:65 #
-332 edge $347 -1 -1 $-1 $236 -3.1415926535897931 $297 -1.5707963267948966 $317 $345 forward @7 unknown T 20.5 -33.5 -2.0512833885718161e-015 20.5 4.1025667771436322e-015 33.5 #
-333 point $-1 -1 -1 $-1 20.5 -33.5 0 #
-334 pcurve $-1 -1 -1 $-1 0 forward { ref 1 } 0 0 #
-335 string_attrib-name_attrib-gen-attrib $-1 -1 $-1 $-1 $300 2 1 2 1 1 1 1 1 1 1 1 1 1 1 0 1 1 1 @15 ATTRIB_XACIS_ID @6 DE:145 #
-336 point $-1 -1 -1 $-1 20.5 33.5 0 #
-337 string_attrib-name_attrib-gen-attrib $-1 -1 $348 $304 $239 2 1 2 1 1 1 1 1 1 1 1 1 1 1 0 1 1 1 @15 ATTRIB_XACIS_ID @5 DE:93 #
-338 straight-curve $-1 -1 -1 $-1 20.5 -17.750000000000004 0 0 -1 0 I I #
-339 integer_attrib-name_attrib-gen-attrib $-1 -1 $-1 $310 $185 2 1 2 1 1 1 1 1 1 1 1 1 1 1 0 1 1 1 @23 ATTRIB_XACIS_LINEWEIGHT 0 #
-340 integer_attrib-name_attrib-gen-attrib $-1 -1 $-1 $312 $190 2 1 2 1 1 1 1 1 1 1 1 1 1 1 0 1 1 1 @23 ATTRIB_XACIS_LINEWEIGHT 0 #
-341 integer_attrib-name_attrib-gen-attrib $-1 -1 $-1 $314 $193 2 1 2 1 1 1 1 1 1 1 1 1 1 1 0 1 1 1 @23 ATTRIB_XACIS_LINEWEIGHT 0 #
-342 integer_attrib-name_attrib-gen-attrib $-1 -1 $-1 $316 $200 2 1 2 1 1 1 1 1 1 1 1 1 1 1 0 1 1 1 @18 ATTRIB_XACIS_LAYER 0 #
-343 pcurve $-1 -1 -1 $-1 0 forward { ref 3 } 0 0 #
-344 string_attrib-name_attrib-gen-attrib $-1 -1 $-1 $-1 $322 2 1 2 1 1 1 1 1 1 1 1 1 1 1 0 1 1 1 @15 ATTRIB_XACIS_ID @6 DE:149 #
-345 ellipse-curve $-1 -1 -1 $-1 20.5 0 0 1 -0 0 0 0 -33.5 1 F -3.1415926535897931 F -2.4492935982947059e-016 #
-346 straight-curve $-1 -1 -1 $-1 20.5 -17.750000000000004 0 0 -1 0 I I #
-347 string_attrib-name_attrib-gen-attrib $-1 -1 $-1 $-1 $332 2 1 2 1 1 1 1 1 1 1 1 1 1 1 0 1 1 1 @15 ATTRIB_XACIS_ID @6 DE:149 #
-348 integer_attrib-name_attrib-gen-attrib $-1 -1 $-1 $337 $239 2 1 2 1 1 1 1 1 1 1 1 1 1 1 0 1 1 1 @23 ATTRIB_XACIS_LINEWEIGHT 0 #
End-of-ACIS-data 
